name rise35.5848peak51.9257fall54.8793.mot
datacolumns 19
datarows 14
range 2.87165100000000 2.89333000000000
endheader
time	ground_force1_vx	ground_force1_vy	ground_force1_vz	ground_force1_px	ground_force1_py	ground_force1_pz	ground_force2_vx	ground_force2_vy	ground_force2_vz	ground_force2_px	ground_force2_py	ground_force2_pz	ground_torque1_x	ground_torque1_y	ground_torque1_z	ground_torque2_x	ground_torque2_y	ground_torque2_z	
2.87165100000000	-3.67592100000000	40.03599100000000	-7.17815000000000	0.32685200000000	0.00000000000000	0.09663600000000	-52.14940000000000	815.31320000000005	-51.55356200000000	0.11840400000000	0.00000000000000	-0.07546900000000	0.00000000000000	-4.78623300000000	0.00000000000000	0.00000000000000	-18.32439400000000	0.00000000000000	
2.87332200000000	-4.03418000000000	46.64561000000000	-8.06113200000000	0.33125000000000	0.00000000000000	0.09723100000000	-53.02903700000000	812.81251099999997	-51.17516600000000	0.11756400000000	0.00000000000000	-0.07534900000000	0.00000000000000	-5.42027600000000	0.00000000000000	0.00000000000000	-18.28743400000000	0.00000000000000	
2.87498800000000	-4.31953400000000	53.26731800000000	-8.85970200000000	0.33519200000000	0.00000000000000	0.09778700000000	-53.92041600000000	810.17420700000002	-50.77677500000000	0.11672400000000	0.00000000000000	-0.07522500000000	0.00000000000000	-6.00550400000000	0.00000000000000	0.00000000000000	-18.25104200000000	0.00000000000000	
2.87664900000000	-4.52024600000000	59.81104700000000	-9.55487500000000	0.33874400000000	0.00000000000000	0.09831100000000	-54.82274600000000	807.39615800000001	-50.35824200000000	0.11588300000000	0.00000000000000	-0.07509800000000	0.00000000000000	-6.52830600000000	0.00000000000000	0.00000000000000	-18.21516700000000	0.00000000000000	
2.87833100000000	-4.62848800000000	66.21089800000000	-10.13413900000000	0.34195900000000	0.00000000000000	0.09880400000000	-55.73514700000000	804.47620500000005	-49.91944200000000	0.11504300000000	0.00000000000000	-0.07496900000000	0.00000000000000	-6.97946700000000	0.00000000000000	0.00000000000000	-18.17974500000000	0.00000000000000	
2.87998300000000	-4.64034800000000	72.42693400000000	-10.59153300000000	0.34488000000000	0.00000000000000	0.09927200000000	-56.65664500000000	801.41216799999995	-49.46027300000000	0.11420200000000	0.00000000000000	-0.07483600000000	0.00000000000000	-7.35429000000000	0.00000000000000	0.00000000000000	-18.14470100000000	0.00000000000000	
2.88164800000000	-4.55551500000000	78.44454300000000	-10.92716400000000	0.34754700000000	0.00000000000000	0.09971600000000	-57.58617500000000	798.20184099999994	-48.98065900000000	0.11336200000000	0.00000000000000	-0.07470000000000	0.00000000000000	-7.65232000000000	0.00000000000000	0.00000000000000	-18.10994400000000	0.00000000000000	
2.88332900000000	-4.37673900000000	84.27183100000001	-11.14631400000000	0.34999000000000	0.00000000000000	0.10013900000000	-58.52258000000000	794.84301000000005	-48.48055300000000	0.11252300000000	0.00000000000000	-0.07456200000000	0.00000000000000	-7.87676700000000	0.00000000000000	0.00000000000000	-18.07537000000000	0.00000000000000	
2.88499800000000	-4.10913300000000	89.93558500000000	-11.25827500000000	0.35223500000000	0.00000000000000	0.10054300000000	-59.46461300000000	791.33344999999997	-47.95993500000000	0.11168500000000	0.00000000000000	-0.07442000000000	0.00000000000000	-8.03372200000000	0.00000000000000	0.00000000000000	-18.04086300000000	0.00000000000000	
2.88665600000000	-3.75941200000000	95.47641400000001	-11.27506300000000	0.35430700000000	0.00000000000000	0.10093000000000	-60.41093400000000	787.67093799999998	-47.41881900000000	0.11084800000000	0.00000000000000	-0.07427500000000	0.00000000000000	-8.13126800000000	0.00000000000000	0.00000000000000	-18.00629300000000	0.00000000000000	
2.88831600000000	-3.33513900000000	100.94358500000000	-11.21011700000000	0.35622300000000	0.00000000000000	0.10130100000000	-61.36011500000000	783.85325599999999	-46.85725200000000	0.11001300000000	0.00000000000000	-0.07412600000000	0.00000000000000	-8.17858600000000	0.00000000000000	0.00000000000000	-17.97151900000000	0.00000000000000	
2.88998300000000	-2.84404000000000	106.39005700000000	-11.07712800000000	0.35800100000000	0.00000000000000	0.10165700000000	-62.31064000000000	779.87820399999998	-46.27531600000000	0.10918000000000	0.00000000000000	-0.07397500000000	0.00000000000000	-8.18512000000000	0.00000000000000	0.00000000000000	-17.93638400000000	0.00000000000000	
2.89165500000000	-2.29343000000000	111.86804600000001	-10.88902700000000	0.35965400000000	0.00000000000000	0.10199900000000	-63.26090700000000	775.74360799999999	-45.67312800000000	0.10834900000000	0.00000000000000	-0.07382100000000	0.00000000000000	-8.15986000000000	0.00000000000000	0.00000000000000	-17.90072300000000	0.00000000000000	
2.89333000000000	-1.68977500000000	117.42540300000000	-10.65722300000000	0.36119600000000	0.00000000000000	0.10232900000000	-64.20923100000000	771.44732599999998	-45.05084600000000	0.10752100000000	0.00000000000000	-0.07366300000000	0.00000000000000	-8.11079400000000	0.00000000000000	0.00000000000000	-17.86435800000000	0.00000000000000	
